<svg xmlns="http://www.w3.org/2000/svg" width="673.44" height="1415.2" contentStyleType="text/css" preserveAspectRatio="none" style="width:673px;height:1415px;background:#fff" version="1.1" viewBox="0 0 673 1415" zoomAndPan="magnify"><g><g id="cluster_DataAccess"><path fill="none" d="M12.9808,3.6683 L63.0008,3.6683 A2.2875,2.2875 0 0 1 64.5258,5.1933 L68.7958,18.6872 L667.5108,18.6872 A1.525,1.525 0 0 1 669.0358,20.2122 L669.0358,1409.4133 A1.525,1.525 0 0 1 667.5108,1410.9383 L12.9808,1410.9383 A1.525,1.525 0 0 1 11.4558,1409.4133 L11.4558,5.1933 A1.525,1.525 0 0 1 12.9808,3.6683" style="stroke:#000;stroke-width:.915"/><line style="stroke:#000;stroke-width:.915" x1="11.456" x2="68.796" y1="18.687" y2="18.687"/><text x="13.896" y="14.104" fill="#000" font-family="sans-serif" font-size="8.54" font-weight="bold" lengthAdjust="spacing" textLength="49.41">DataAccess</text></g><g id="cluster_Entities"><path fill="#DDD" d="M27.6208,31.1183 L60.5608,31.1183 A2.2875,2.2875 0 0 1 62.0858,32.6433 L66.3558,46.1372 L652.8708,46.1372 A1.525,1.525 0 0 1 654.3958,47.6622 L654.3958,1394.7733 A1.525,1.525 0 0 1 652.8708,1396.2983 L27.6208,1396.2983 A1.525,1.525 0 0 1 26.0958,1394.7733 L26.0958,32.6433 A1.525,1.525 0 0 1 27.6208,31.1183" style="stroke:#000;stroke-width:.915"/><line style="stroke:#000;stroke-width:.915" x1="26.096" x2="66.356" y1="46.137" y2="46.137"/><text x="28.536" y="41.554" fill="#000" font-family="sans-serif" font-size="8.54" font-weight="bold" lengthAdjust="spacing" textLength="32.33">Entities</text></g><g id="elem_User"><rect id="User" width="186.66" height="150.544" x="246.916" y="53.688" fill="#F1F1F1" codeLine="12" rx="1.525" ry="1.525" style="stroke:#181818;stroke-width:.305"/><ellipse cx="325.453" cy="67.286" fill="#ADD1B2" rx="6.71" ry="6.71" style="stroke:#181818;stroke-width:.61"/><path fill="#000" d="M327.1403,64.7696 Q327.2356,64.6362 327.35,64.5695 Q327.4644,64.5027 327.5978,64.5027 Q327.8266,64.5027 327.9695,64.6648 Q328.1125,64.8173 328.1125,65.189 L328.1125,66.0754 Q328.1125,66.4471 327.9695,66.6091 Q327.8266,66.7712 327.5978,66.7712 Q327.3881,66.7712 327.2642,66.6473 Q327.1403,66.5329 327.0736,66.2184 Q327.045,65.9991 326.9306,65.8848 Q326.7305,65.656 326.3588,65.5226 Q325.987,65.3891 325.6058,65.3891 Q325.1388,65.3891 324.748,65.5893 Q324.3667,65.7895 324.0617,66.247 Q323.7663,66.7045 323.7663,67.3335 L323.7663,68.0007 Q323.7663,68.7537 324.3096,69.2588 Q324.8528,69.7545 325.825,69.7545 Q326.3969,69.7545 326.7972,69.602 Q327.0355,69.5066 327.2928,69.2398 Q327.4549,69.0777 327.5406,69.0301 Q327.636,68.9824 327.7599,68.9824 Q327.96,68.9824 328.1125,69.1445 Q328.2746,69.297 328.2746,69.5066 Q328.2746,69.7163 328.0649,69.9641 Q327.7599,70.3168 327.2738,70.517 Q326.6161,70.7934 325.825,70.7934 Q324.9005,70.7934 324.1666,70.4121 Q323.5661,70.1071 323.1467,69.459 Q322.7274,68.8013 322.7274,68.0198 L322.7274,67.3145 Q322.7274,66.5043 323.0991,65.8085 Q323.4803,65.1032 324.1475,64.7315 Q324.8147,64.3502 325.5677,64.3502 Q326.0156,64.3502 326.4064,64.4551 Q326.8067,64.5504 327.1403,64.7696 Z"/><text x="336.738" y="64.637" fill="#000" font-family="sans-serif" font-size="7.32" font-style="italic" lengthAdjust="spacing" textLength="26.84">«Entity»</text><text x="341.313" y="75.69" fill="#000" font-family="sans-serif" font-size="8.54" lengthAdjust="spacing" textLength="17.69">User</text><line style="stroke:#181818;stroke-width:.305" x1="247.526" x2="432.966" y1="80.883" y2="80.883"/><text x="250.576" y="92.539" fill="#000" font-family="sans-serif" font-size="8.54" lengthAdjust="spacing" textLength="67.71">+UserId «get/set»</text><text x="250.576" y="103.898" fill="#000" font-family="sans-serif" font-size="8.54" lengthAdjust="spacing" textLength="122.61">+string UserLastname «get/set»</text><text x="250.576" y="115.257" fill="#000" font-family="sans-serif" font-size="8.54" lengthAdjust="spacing" textLength="123.22">+string UserFirstname «get/set»</text><text x="250.576" y="126.615" fill="#000" font-family="sans-serif" font-size="8.54" lengthAdjust="spacing" textLength="127.49">+string UserPatronymic «get/set»</text><text x="250.576" y="137.974" fill="#000" font-family="sans-serif" font-size="8.54" lengthAdjust="spacing" textLength="87.84">+string Email «get/set»</text><text x="250.576" y="149.333" fill="#000" font-family="sans-serif" font-size="8.54" lengthAdjust="spacing" textLength="105.53">+string PassHash «get/set»</text><text x="250.576" y="160.692" fill="#000" font-family="sans-serif" font-size="8.54" lengthAdjust="spacing" textLength="119.56">+int TournamentsLim «get/set»</text><text x="250.576" y="172.051" fill="#000" font-family="sans-serif" font-size="8.54" lengthAdjust="spacing" textLength="132.37">+DateOnly RegisterDate «get/set»</text><text x="250.576" y="183.41" fill="#000" font-family="sans-serif" font-size="8.54" lengthAdjust="spacing" textLength="133.59">+TimeOnly RegisterTime «get/set»</text><text x="250.576" y="194.769" fill="#000" font-family="sans-serif" font-size="8.54" lengthAdjust="spacing" textLength="179.34">+ICollection&lt;Tournament&gt; Tournaments «get»</text><line style="stroke:#181818;stroke-width:.305" x1="247.526" x2="432.966" y1="199.352" y2="199.352"/></g><g id="elem_Tournament"><rect id="Tournament" width="155.55" height="309.568" x="262.471" y="241.568" fill="#F1F1F1" codeLine="25" rx="1.525" ry="1.525" style="stroke:#181818;stroke-width:.305"/><ellipse cx="314.168" cy="255.166" fill="#ADD1B2" rx="6.71" ry="6.71" style="stroke:#181818;stroke-width:.61"/><path fill="#000" d="M315.8553,252.6496 Q315.9506,252.5162 316.065,252.4495 Q316.1794,252.3827 316.3128,252.3827 Q316.5416,252.3827 316.6846,252.5448 Q316.8275,252.6973 316.8275,253.069 L316.8275,253.9554 Q316.8275,254.3271 316.6846,254.4891 Q316.5416,254.6512 316.3128,254.6512 Q316.1031,254.6512 315.9792,254.5273 Q315.8553,254.4129 315.7886,254.0984 Q315.76,253.8791 315.6456,253.7648 Q315.4455,253.536 315.0738,253.4026 Q314.7021,253.2691 314.3208,253.2691 Q313.8538,253.2691 313.463,253.4693 Q313.0817,253.6695 312.7767,254.127 Q312.4813,254.5845 312.4813,255.2135 L312.4813,255.8807 Q312.4813,256.6337 313.0246,257.1388 Q313.5678,257.6345 314.54,257.6345 Q315.1119,257.6345 315.5122,257.482 Q315.7505,257.3866 316.0078,257.1198 Q316.1699,256.9577 316.2556,256.9101 Q316.351,256.8624 316.4749,256.8624 Q316.675,256.8624 316.8275,257.0245 Q316.9895,257.177 316.9895,257.3866 Q316.9895,257.5963 316.7799,257.8441 Q316.4749,258.1968 315.9888,258.397 Q315.3311,258.6734 314.54,258.6734 Q313.6155,258.6734 312.8816,258.2921 Q312.2811,257.9871 311.8617,257.339 Q311.4424,256.6813 311.4424,255.8998 L311.4424,255.1945 Q311.4424,254.3843 311.8141,253.6885 Q312.1953,252.9832 312.8625,252.6115 Q313.5297,252.2302 314.2827,252.2302 Q314.7306,252.2302 315.1214,252.3351 Q315.5217,252.4304 315.8553,252.6496 Z"/><text x="336.738" y="252.517" fill="#000" font-family="sans-serif" font-size="7.32" font-style="italic" lengthAdjust="spacing" textLength="26.84">«Entity»</text><text x="326.673" y="263.57" fill="#000" font-family="sans-serif" font-size="8.54" lengthAdjust="spacing" textLength="46.97">Tournament</text><line style="stroke:#181818;stroke-width:.305" x1="263.081" x2="417.411" y1="268.763" y2="268.763"/><text x="266.131" y="280.419" fill="#000" font-family="sans-serif" font-size="8.54" lengthAdjust="spacing" textLength="108.58">+int TournamentId «get/set»</text><text x="266.131" y="291.778" fill="#000" font-family="sans-serif" font-size="8.54" lengthAdjust="spacing" textLength="99.43">+int OrganizerId «get/set»</text><text x="266.131" y="303.137" fill="#000" font-family="sans-serif" font-size="8.54" lengthAdjust="spacing" textLength="136.03">+string TournamentName «get/set»</text><text x="266.131" y="314.495" fill="#000" font-family="sans-serif" font-size="8.54" lengthAdjust="spacing" textLength="100.65">+int ToursCount «get/set»</text><text x="266.131" y="325.854" fill="#000" font-family="sans-serif" font-size="8.54" lengthAdjust="spacing" textLength="88.45">+string Place «get/set»</text><text x="266.131" y="337.213" fill="#000" font-family="sans-serif" font-size="8.54" lengthAdjust="spacing" textLength="118.34">+DateOnly DateStart «get/set»</text><text x="266.131" y="348.572" fill="#000" font-family="sans-serif" font-size="8.54" lengthAdjust="spacing" textLength="119.56">+TimeOnly TimeStart «get/set»</text><text x="266.131" y="359.931" fill="#000" font-family="sans-serif" font-size="8.54" lengthAdjust="spacing" textLength="87.84">+int Duration «get/set»</text><text x="266.131" y="371.29" fill="#000" font-family="sans-serif" font-size="8.54" lengthAdjust="spacing" textLength="120.78">+int MaxTeamPlayers «get/set»</text><text x="266.131" y="382.649" fill="#000" font-family="sans-serif" font-size="8.54" lengthAdjust="spacing" textLength="137.86">+string OrganizationName «get/set»</text><text x="266.131" y="394.008" fill="#000" font-family="sans-serif" font-size="8.54" lengthAdjust="spacing" textLength="123.83">+bool? IsMixedGroups «get/set»</text><text x="266.131" y="405.366" fill="#000" font-family="sans-serif" font-size="8.54" lengthAdjust="spacing" textLength="126.27">+DateOnly DateCreate «get/set»</text><text x="266.131" y="416.725" fill="#000" font-family="sans-serif" font-size="8.54" lengthAdjust="spacing" textLength="127.49">+TimeOnly TimeCreate «get/set»</text><text x="266.131" y="428.084" fill="#000" font-family="sans-serif" font-size="8.54" lengthAdjust="spacing" textLength="147.01">+DateOnly DateLastChange «get/set»</text><text x="266.131" y="439.443" fill="#000" font-family="sans-serif" font-size="8.54" lengthAdjust="spacing" textLength="148.23">+TimeOnly TimeLastChange «get/set»</text><text x="266.131" y="450.802" fill="#000" font-family="sans-serif" font-size="8.54" lengthAdjust="spacing" textLength="89.67">+int SystemId «get/set»</text><text x="266.131" y="462.161" fill="#000" font-family="sans-serif" font-size="8.54" lengthAdjust="spacing" textLength="78.69">+int KindId «get/set»</text><text x="266.131" y="473.52" fill="#000" font-family="sans-serif" font-size="8.54" lengthAdjust="spacing" textLength="134.2">+ICollection&lt;Group&gt; Groups «get»</text><text x="266.131" y="484.878" fill="#000" font-family="sans-serif" font-size="8.54" lengthAdjust="spacing" textLength="79.91">+Kind Kind «get/set»</text><text x="266.131" y="496.237" fill="#000" font-family="sans-serif" font-size="8.54" lengthAdjust="spacing" textLength="101.26">+User Organizer «get/set»</text><text x="266.131" y="507.596" fill="#000" font-family="sans-serif" font-size="8.54" lengthAdjust="spacing" textLength="134.2">+ICollection&lt;Player&gt; Players «get»</text><text x="266.131" y="518.955" fill="#000" font-family="sans-serif" font-size="8.54" lengthAdjust="spacing" textLength="101.87">+System System «get/set»</text><text x="266.131" y="530.314" fill="#000" font-family="sans-serif" font-size="8.54" lengthAdjust="spacing" textLength="129.32">+ICollection&lt;Team&gt; Teams «get»</text><text x="266.131" y="541.673" fill="#000" font-family="sans-serif" font-size="8.54" lengthAdjust="spacing" textLength="125.66">+ICollection&lt;Ratio&gt; Ratios «get»</text><line style="stroke:#181818;stroke-width:.305" x1="263.081" x2="417.411" y1="546.256" y2="546.256"/></g><g id="elem_Group"><rect id="Group" width="147.01" height="116.467" x="65.441" y="337.948" fill="#F1F1F1" codeLine="52" rx="1.525" ry="1.525" style="stroke:#181818;stroke-width:.305"/><ellipse cx="124.153" cy="351.546" fill="#ADD1B2" rx="6.71" ry="6.71" style="stroke:#181818;stroke-width:.61"/><path fill="#000" d="M125.8403,349.0296 Q125.9356,348.8962 126.05,348.8295 Q126.1644,348.7627 126.2978,348.7627 Q126.5266,348.7627 126.6696,348.9248 Q126.8125,349.0773 126.8125,349.449 L126.8125,350.3354 Q126.8125,350.7071 126.6696,350.8691 Q126.5266,351.0312 126.2978,351.0312 Q126.0881,351.0312 125.9642,350.9073 Q125.8403,350.7929 125.7736,350.4784 Q125.745,350.2591 125.6306,350.1448 Q125.4305,349.916 125.0588,349.7826 Q124.6871,349.6491 124.3058,349.6491 Q123.8388,349.6491 123.448,349.8493 Q123.0667,350.0495 122.7617,350.507 Q122.4663,350.9645 122.4663,351.5935 L122.4663,352.2607 Q122.4663,353.0137 123.0096,353.5188 Q123.5528,354.0145 124.525,354.0145 Q125.0969,354.0145 125.4972,353.862 Q125.7355,353.7666 125.9928,353.4998 Q126.1549,353.3377 126.2406,353.2901 Q126.336,353.2424 126.4599,353.2424 Q126.66,353.2424 126.8125,353.4045 Q126.9746,353.557 126.9746,353.7666 Q126.9746,353.9763 126.7649,354.2241 Q126.4599,354.5768 125.9738,354.777 Q125.3161,355.0534 124.525,355.0534 Q123.6005,355.0534 122.8666,354.6721 Q122.2661,354.3671 121.8467,353.719 Q121.4274,353.0613 121.4274,352.2798 L121.4274,351.5745 Q121.4274,350.7643 121.7991,350.0685 Q122.1803,349.3632 122.8475,348.9915 Q123.5147,348.6102 124.2677,348.6102 Q124.7156,348.6102 125.1064,348.7151 Q125.5067,348.8104 125.8403,349.0296 Z"/><text x="135.438" y="348.897" fill="#000" font-family="sans-serif" font-size="7.32" font-style="italic" lengthAdjust="spacing" textLength="26.84">«Entity»</text><text x="136.658" y="359.95" fill="#000" font-family="sans-serif" font-size="8.54" lengthAdjust="spacing" textLength="24.4">Group</text><line style="stroke:#181818;stroke-width:.305" x1="66.051" x2="211.841" y1="365.143" y2="365.143"/><text x="69.101" y="376.799" fill="#000" font-family="sans-serif" font-size="8.54" lengthAdjust="spacing" textLength="86.01">+int GroupId «get/set»</text><text x="69.101" y="388.158" fill="#000" font-family="sans-serif" font-size="8.54" lengthAdjust="spacing" textLength="108.58">+int TournamentId «get/set»</text><text x="69.101" y="399.517" fill="#000" font-family="sans-serif" font-size="8.54" lengthAdjust="spacing" textLength="99.43">+int OrganizerId «get/set»</text><text x="69.101" y="410.875" fill="#000" font-family="sans-serif" font-size="8.54" lengthAdjust="spacing" textLength="94.55">+string Identity «get/set»</text><text x="69.101" y="422.234" fill="#000" font-family="sans-serif" font-size="8.54" lengthAdjust="spacing" textLength="113.46">+string GroupName «get/set»</text><text x="69.101" y="433.593" fill="#000" font-family="sans-serif" font-size="8.54" lengthAdjust="spacing" textLength="134.2">+ICollection&lt;Player&gt; Players «get»</text><text x="69.101" y="444.952" fill="#000" font-family="sans-serif" font-size="8.54" lengthAdjust="spacing" textLength="139.69">+Tournament Tournament «get/set»</text><line style="stroke:#181818;stroke-width:.305" x1="66.051" x2="211.841" y1="449.535" y2="449.535"/></g><g id="elem_Kind"><rect id="Kind" width="186.66" height="71.032" x="439.676" y="360.823" fill="#F1F1F1" codeLine="62" rx="1.525" ry="1.525" style="stroke:#181818;stroke-width:.305"/><ellipse cx="518.213" cy="374.421" fill="#ADD1B2" rx="6.71" ry="6.71" style="stroke:#181818;stroke-width:.61"/><path fill="#000" d="M519.9003,371.9046 Q519.9956,371.7712 520.11,371.7045 Q520.2244,371.6377 520.3578,371.6377 Q520.5866,371.6377 520.7296,371.7998 Q520.8725,371.9523 520.8725,372.324 L520.8725,373.2104 Q520.8725,373.5821 520.7296,373.7441 Q520.5866,373.9062 520.3578,373.9062 Q520.1481,373.9062 520.0242,373.7823 Q519.9003,373.6679 519.8336,373.3534 Q519.805,373.1341 519.6906,373.0198 Q519.4905,372.791 519.1188,372.6576 Q518.7471,372.5241 518.3658,372.5241 Q517.8988,372.5241 517.508,372.7243 Q517.1267,372.9245 516.8217,373.382 Q516.5263,373.8395 516.5263,374.4685 L516.5263,375.1357 Q516.5263,375.8887 517.0695,376.3938 Q517.6128,376.8895 518.585,376.8895 Q519.1569,376.8895 519.5572,376.737 Q519.7955,376.6416 520.0528,376.3748 Q520.2149,376.2127 520.3006,376.1651 Q520.396,376.1174 520.5199,376.1174 Q520.72,376.1174 520.8725,376.2795 Q521.0346,376.432 521.0346,376.6416 Q521.0346,376.8513 520.8249,377.0991 Q520.5199,377.4518 520.0338,377.652 Q519.3761,377.9284 518.585,377.9284 Q517.6605,377.9284 516.9266,377.5471 Q516.3261,377.2421 515.9067,376.594 Q515.4874,375.9363 515.4874,375.1548 L515.4874,374.4495 Q515.4874,373.6393 515.8591,372.9435 Q516.2403,372.2382 516.9075,371.8665 Q517.5747,371.4852 518.3277,371.4852 Q518.7756,371.4852 519.1664,371.5901 Q519.5667,371.6854 519.9003,371.9046 Z"/><text x="529.498" y="371.772" fill="#000" font-family="sans-serif" font-size="7.32" font-style="italic" lengthAdjust="spacing" textLength="26.84">«Entity»</text><text x="534.378" y="382.825" fill="#000" font-family="sans-serif" font-size="8.54" lengthAdjust="spacing" textLength="17.08">Kind</text><line style="stroke:#181818;stroke-width:.305" x1="440.286" x2="625.726" y1="388.018" y2="388.018"/><text x="443.336" y="399.674" fill="#000" font-family="sans-serif" font-size="8.54" lengthAdjust="spacing" textLength="78.69">+int KindId «get/set»</text><text x="443.336" y="411.033" fill="#000" font-family="sans-serif" font-size="8.54" lengthAdjust="spacing" textLength="106.14">+string KindName «get/set»</text><text x="443.336" y="422.392" fill="#000" font-family="sans-serif" font-size="8.54" lengthAdjust="spacing" textLength="179.34">+ICollection&lt;Tournament&gt; Tournaments «get»</text><line style="stroke:#181818;stroke-width:.305" x1="440.286" x2="625.726" y1="426.975" y2="426.975"/></g><g id="elem_Player"><rect id="Player" width="185.44" height="309.568" x="247.526" y="753.358" fill="#F1F1F1" codeLine="68" rx="1.525" ry="1.525" style="stroke:#181818;stroke-width:.305"/><ellipse cx="325.453" cy="766.956" fill="#ADD1B2" rx="6.71" ry="6.71" style="stroke:#181818;stroke-width:.61"/><path fill="#000" d="M327.1403,764.4396 Q327.2356,764.3062 327.35,764.2395 Q327.4644,764.1727 327.5978,764.1727 Q327.8266,764.1727 327.9695,764.3348 Q328.1125,764.4873 328.1125,764.859 L328.1125,765.7454 Q328.1125,766.1171 327.9695,766.2791 Q327.8266,766.4412 327.5978,766.4412 Q327.3881,766.4412 327.2642,766.3173 Q327.1403,766.2029 327.0736,765.8884 Q327.045,765.6691 326.9306,765.5548 Q326.7305,765.326 326.3588,765.1926 Q325.987,765.0591 325.6058,765.0591 Q325.1388,765.0591 324.748,765.2593 Q324.3667,765.4595 324.0617,765.917 Q323.7663,766.3745 323.7663,767.0035 L323.7663,767.6707 Q323.7663,768.4237 324.3096,768.9288 Q324.8528,769.4245 325.825,769.4245 Q326.3969,769.4245 326.7972,769.272 Q327.0355,769.1766 327.2928,768.9098 Q327.4549,768.7477 327.5406,768.7001 Q327.636,768.6524 327.7599,768.6524 Q327.96,768.6524 328.1125,768.8145 Q328.2746,768.967 328.2746,769.1766 Q328.2746,769.3863 328.0649,769.6341 Q327.7599,769.9868 327.2738,770.187 Q326.6161,770.4634 325.825,770.4634 Q324.9005,770.4634 324.1666,770.0821 Q323.5661,769.7771 323.1467,769.129 Q322.7274,768.4713 322.7274,767.6898 L322.7274,766.9845 Q322.7274,766.1743 323.0991,765.4785 Q323.4803,764.7732 324.1475,764.4015 Q324.8147,764.0202 325.5677,764.0202 Q326.0156,764.0202 326.4064,764.1251 Q326.8067,764.2204 327.1403,764.4396 Z"/><text x="336.738" y="764.307" fill="#000" font-family="sans-serif" font-size="7.32" font-style="italic" lengthAdjust="spacing" textLength="26.84">«Entity»</text><text x="337.958" y="775.36" fill="#000" font-family="sans-serif" font-size="8.54" lengthAdjust="spacing" textLength="24.4">Player</text><line style="stroke:#181818;stroke-width:.305" x1="248.136" x2="432.356" y1="780.553" y2="780.553"/><text x="251.186" y="792.209" fill="#000" font-family="sans-serif" font-size="8.54" lengthAdjust="spacing" textLength="86.01">+int PlayerId «get/set»</text><text x="251.186" y="803.568" fill="#000" font-family="sans-serif" font-size="8.54" lengthAdjust="spacing" textLength="108.58">+int TournamentId «get/set»</text><text x="251.186" y="814.927" fill="#000" font-family="sans-serif" font-size="8.54" lengthAdjust="spacing" textLength="99.43">+int OrganizerId «get/set»</text><text x="251.186" y="826.285" fill="#000" font-family="sans-serif" font-size="8.54" lengthAdjust="spacing" textLength="129.93">+string PlayerLastName «get/set»</text><text x="251.186" y="837.644" fill="#000" font-family="sans-serif" font-size="8.54" lengthAdjust="spacing" textLength="130.54">+string PlayerFirstName «get/set»</text><text x="251.186" y="849.003" fill="#000" font-family="sans-serif" font-size="8.54" lengthAdjust="spacing" textLength="92.11">+char Gender «get/set»</text><text x="251.186" y="860.362" fill="#000" font-family="sans-serif" font-size="8.54" lengthAdjust="spacing" textLength="123.83">+string PlayerAttribute «get/set»</text><text x="251.186" y="871.721" fill="#000" font-family="sans-serif" font-size="8.54" lengthAdjust="spacing" textLength="115.29">+int PlayerBirthYear «get/set»</text><text x="251.186" y="883.08" fill="#000" font-family="sans-serif" font-size="8.54" lengthAdjust="spacing" textLength="96.38">+bool? IsActive «get/set»</text><text x="251.186" y="894.439" fill="#000" font-family="sans-serif" font-size="8.54" lengthAdjust="spacing" textLength="118.95">+double PointsCount «get/set»</text><text x="251.186" y="905.798" fill="#000" font-family="sans-serif" font-size="8.54" lengthAdjust="spacing" textLength="96.99">+int WinsCount «get/set»</text><text x="251.186" y="917.156" fill="#000" font-family="sans-serif" font-size="8.54" lengthAdjust="spacing" textLength="105.53">+int LossesCount «get/set»</text><text x="251.186" y="928.515" fill="#000" font-family="sans-serif" font-size="8.54" lengthAdjust="spacing" textLength="101.87">+int DrawsCount «get/set»</text><text x="251.186" y="939.874" fill="#000" font-family="sans-serif" font-size="8.54" lengthAdjust="spacing" textLength="117.12">+decimal RatioSum1 «get/set»</text><text x="251.186" y="951.233" fill="#000" font-family="sans-serif" font-size="8.54" lengthAdjust="spacing" textLength="117.12">+decimal RatioSum2 «get/set»</text><text x="251.186" y="962.592" fill="#000" font-family="sans-serif" font-size="8.54" lengthAdjust="spacing" textLength="107.97">+int BoardNumber «get/set»</text><text x="251.186" y="973.951" fill="#000" font-family="sans-serif" font-size="8.54" lengthAdjust="spacing" textLength="88.45">+int? TeamId «get/set»</text><text x="251.186" y="985.31" fill="#000" font-family="sans-serif" font-size="8.54" lengthAdjust="spacing" textLength="90.89">+int? GroupId «get/set»</text><text x="251.186" y="996.668" fill="#000" font-family="sans-serif" font-size="8.54" lengthAdjust="spacing" textLength="176.9">+ICollection&lt;Game&gt; BlackGamePlayers «get»</text><text x="251.186" y="1008.027" fill="#000" font-family="sans-serif" font-size="8.54" lengthAdjust="spacing" textLength="178.12">+ICollection&lt;Game&gt; WhiteGamePlayers «get»</text><text x="251.186" y="1019.386" fill="#000" font-family="sans-serif" font-size="8.54" lengthAdjust="spacing" textLength="99.43">+Group? Group «get/set»</text><text x="251.186" y="1030.745" fill="#000" font-family="sans-serif" font-size="8.54" lengthAdjust="spacing" textLength="94.55">+Team? Team «get/set»</text><text x="251.186" y="1042.104" fill="#000" font-family="sans-serif" font-size="8.54" lengthAdjust="spacing" textLength="139.69">+Tournament Tournament «get/set»</text><text x="251.186" y="1053.463" fill="#000" font-family="sans-serif" font-size="8.54" lengthAdjust="spacing" textLength="113.46">+string PlayerFullName «get»</text><line style="stroke:#181818;stroke-width:.305" x1="248.136" x2="432.356" y1="1058.046" y2="1058.046"/></g><g id="elem_Ratio"><rect id="Ratio" width="186.66" height="71.032" x="58.426" y="616.718" fill="#F1F1F1" codeLine="95" rx="1.525" ry="1.525" style="stroke:#181818;stroke-width:.305"/><ellipse cx="136.963" cy="630.316" fill="#ADD1B2" rx="6.71" ry="6.71" style="stroke:#181818;stroke-width:.61"/><path fill="#000" d="M138.6503,627.7996 Q138.7456,627.6662 138.86,627.5995 Q138.9744,627.5327 139.1078,627.5327 Q139.3366,627.5327 139.4796,627.6948 Q139.6225,627.8473 139.6225,628.219 L139.6225,629.1054 Q139.6225,629.4771 139.4796,629.6391 Q139.3366,629.8012 139.1078,629.8012 Q138.8981,629.8012 138.7742,629.6773 Q138.6503,629.5629 138.5836,629.2484 Q138.555,629.0291 138.4406,628.9148 Q138.2405,628.686 137.8688,628.5526 Q137.4971,628.4191 137.1158,628.4191 Q136.6488,628.4191 136.258,628.6193 Q135.8767,628.8195 135.5717,629.277 Q135.2763,629.7345 135.2763,630.3635 L135.2763,631.0307 Q135.2763,631.7837 135.8196,632.2888 Q136.3628,632.7845 137.335,632.7845 Q137.9069,632.7845 138.3072,632.632 Q138.5455,632.5366 138.8028,632.2698 Q138.9649,632.1077 139.0506,632.0601 Q139.146,632.0124 139.2699,632.0124 Q139.47,632.0124 139.6225,632.1745 Q139.7846,632.327 139.7846,632.5366 Q139.7846,632.7463 139.5749,632.9941 Q139.2699,633.3468 138.7838,633.547 Q138.1261,633.8234 137.335,633.8234 Q136.4105,633.8234 135.6766,633.4421 Q135.0761,633.1371 134.6567,632.489 Q134.2374,631.8313 134.2374,631.0498 L134.2374,630.3445 Q134.2374,629.5343 134.6091,628.8385 Q134.9903,628.1332 135.6575,627.7615 Q136.3247,627.3802 137.0777,627.3802 Q137.5256,627.3802 137.9164,627.4851 Q138.3167,627.5804 138.6503,627.7996 Z"/><text x="148.248" y="627.667" fill="#000" font-family="sans-serif" font-size="7.32" font-style="italic" lengthAdjust="spacing" textLength="26.84">«Entity»</text><text x="151.603" y="638.72" fill="#000" font-family="sans-serif" font-size="8.54" lengthAdjust="spacing" textLength="20.13">Ratio</text><line style="stroke:#181818;stroke-width:.305" x1="59.036" x2="244.476" y1="643.913" y2="643.913"/><text x="62.086" y="655.569" fill="#000" font-family="sans-serif" font-size="8.54" lengthAdjust="spacing" textLength="81.74">+int RatioId «get/set»</text><text x="62.086" y="666.928" fill="#000" font-family="sans-serif" font-size="8.54" lengthAdjust="spacing" textLength="109.19">+string RatioName «get/set»</text><text x="62.086" y="678.287" fill="#000" font-family="sans-serif" font-size="8.54" lengthAdjust="spacing" textLength="179.34">+ICollection&lt;Tournament&gt; Tournaments «get»</text><line style="stroke:#181818;stroke-width:.305" x1="59.036" x2="244.476" y1="682.87" y2="682.87"/></g><g id="elem_Team"><rect id="Team" width="147.01" height="127.826" x="266.741" y="588.048" fill="#F1F1F1" codeLine="101" rx="1.525" ry="1.525" style="stroke:#181818;stroke-width:.305"/><ellipse cx="325.453" cy="601.646" fill="#ADD1B2" rx="6.71" ry="6.71" style="stroke:#181818;stroke-width:.61"/><path fill="#000" d="M327.1403,599.1296 Q327.2356,598.9962 327.35,598.9295 Q327.4644,598.8627 327.5978,598.8627 Q327.8266,598.8627 327.9695,599.0248 Q328.1125,599.1773 328.1125,599.549 L328.1125,600.4354 Q328.1125,600.8071 327.9695,600.9691 Q327.8266,601.1312 327.5978,601.1312 Q327.3881,601.1312 327.2642,601.0073 Q327.1403,600.8929 327.0736,600.5784 Q327.045,600.3591 326.9306,600.2448 Q326.7305,600.016 326.3588,599.8826 Q325.987,599.7491 325.6058,599.7491 Q325.1388,599.7491 324.748,599.9493 Q324.3667,600.1495 324.0617,600.607 Q323.7663,601.0645 323.7663,601.6935 L323.7663,602.3607 Q323.7663,603.1137 324.3096,603.6188 Q324.8528,604.1145 325.825,604.1145 Q326.3969,604.1145 326.7972,603.962 Q327.0355,603.8666 327.2928,603.5998 Q327.4549,603.4377 327.5406,603.3901 Q327.636,603.3424 327.7599,603.3424 Q327.96,603.3424 328.1125,603.5045 Q328.2746,603.657 328.2746,603.8666 Q328.2746,604.0763 328.0649,604.3241 Q327.7599,604.6768 327.2738,604.877 Q326.6161,605.1534 325.825,605.1534 Q324.9005,605.1534 324.1666,604.7721 Q323.5661,604.4671 323.1467,603.819 Q322.7274,603.1613 322.7274,602.3798 L322.7274,601.6745 Q322.7274,600.8643 323.0991,600.1685 Q323.4803,599.4632 324.1475,599.0915 Q324.8147,598.7102 325.5677,598.7102 Q326.0156,598.7102 326.4064,598.8151 Q326.8067,598.9104 327.1403,599.1296 Z"/><text x="336.738" y="598.997" fill="#000" font-family="sans-serif" font-size="7.32" font-style="italic" lengthAdjust="spacing" textLength="26.84">«Entity»</text><text x="339.178" y="610.05" fill="#000" font-family="sans-serif" font-size="8.54" lengthAdjust="spacing" textLength="21.96">Team</text><line style="stroke:#181818;stroke-width:.305" x1="267.351" x2="413.141" y1="615.243" y2="615.243"/><text x="270.401" y="626.899" fill="#000" font-family="sans-serif" font-size="8.54" lengthAdjust="spacing" textLength="83.57">+int TeamId «get/set»</text><text x="270.401" y="638.258" fill="#000" font-family="sans-serif" font-size="8.54" lengthAdjust="spacing" textLength="99.43">+int OrganizerId «get/set»</text><text x="270.401" y="649.617" fill="#000" font-family="sans-serif" font-size="8.54" lengthAdjust="spacing" textLength="108.58">+int TournamentId «get/set»</text><text x="270.401" y="660.976" fill="#000" font-family="sans-serif" font-size="8.54" lengthAdjust="spacing" textLength="111.02">+string TeamName «get/set»</text><text x="270.401" y="672.334" fill="#000" font-family="sans-serif" font-size="8.54" lengthAdjust="spacing" textLength="121.39">+string TeamAttribute «get/set»</text><text x="270.401" y="683.693" fill="#000" font-family="sans-serif" font-size="8.54" lengthAdjust="spacing" textLength="96.38">+bool? IsActive «get/set»</text><text x="270.401" y="695.052" fill="#000" font-family="sans-serif" font-size="8.54" lengthAdjust="spacing" textLength="134.2">+ICollection&lt;Player&gt; Players «get»</text><text x="270.401" y="706.411" fill="#000" font-family="sans-serif" font-size="8.54" lengthAdjust="spacing" textLength="139.69">+Tournament Tournament «get/set»</text><line style="stroke:#181818;stroke-width:.305" x1="267.351" x2="413.141" y1="710.994" y2="710.994"/></g><g id="elem_System"><rect id="System" width="186.66" height="71.032" x="435.406" y="616.718" fill="#F1F1F1" codeLine="112" rx="1.525" ry="1.525" style="stroke:#181818;stroke-width:.305"/><ellipse cx="512.113" cy="630.316" fill="#ADD1B2" rx="6.71" ry="6.71" style="stroke:#181818;stroke-width:.61"/><path fill="#000" d="M513.8003,627.7996 Q513.8956,627.6662 514.01,627.5995 Q514.1244,627.5327 514.2578,627.5327 Q514.4866,627.5327 514.6296,627.6948 Q514.7725,627.8473 514.7725,628.219 L514.7725,629.1054 Q514.7725,629.4771 514.6296,629.6391 Q514.4866,629.8012 514.2578,629.8012 Q514.0481,629.8012 513.9242,629.6773 Q513.8003,629.5629 513.7336,629.2484 Q513.705,629.0291 513.5906,628.9148 Q513.3905,628.686 513.0188,628.5526 Q512.647,628.4191 512.2658,628.4191 Q511.7988,628.4191 511.408,628.6193 Q511.0267,628.8195 510.7217,629.277 Q510.4263,629.7345 510.4263,630.3635 L510.4263,631.0307 Q510.4263,631.7837 510.9695,632.2888 Q511.5128,632.7845 512.485,632.7845 Q513.0569,632.7845 513.4572,632.632 Q513.6955,632.5366 513.9528,632.2698 Q514.1149,632.1077 514.2006,632.0601 Q514.296,632.0124 514.4199,632.0124 Q514.62,632.0124 514.7725,632.1745 Q514.9346,632.327 514.9346,632.5366 Q514.9346,632.7463 514.7249,632.9941 Q514.4199,633.3468 513.9338,633.547 Q513.2761,633.8234 512.485,633.8234 Q511.5605,633.8234 510.8266,633.4421 Q510.2261,633.1371 509.8067,632.489 Q509.3874,631.8313 509.3874,631.0498 L509.3874,630.3445 Q509.3874,629.5343 509.7591,628.8385 Q510.1403,628.1332 510.8075,627.7615 Q511.4747,627.3802 512.2277,627.3802 Q512.6756,627.3802 513.0664,627.4851 Q513.4667,627.5804 513.8003,627.7996 Z"/><text x="525.228" y="627.667" fill="#000" font-family="sans-serif" font-size="7.32" font-style="italic" lengthAdjust="spacing" textLength="26.84">«Entity»</text><text x="524.618" y="638.72" fill="#000" font-family="sans-serif" font-size="8.54" lengthAdjust="spacing" textLength="28.06">System</text><line style="stroke:#181818;stroke-width:.305" x1="436.016" x2="621.456" y1="643.913" y2="643.913"/><text x="439.066" y="655.569" fill="#000" font-family="sans-serif" font-size="8.54" lengthAdjust="spacing" textLength="89.67">+int SystemId «get/set»</text><text x="439.066" y="666.928" fill="#000" font-family="sans-serif" font-size="8.54" lengthAdjust="spacing" textLength="117.12">+string SystemName «get/set»</text><text x="439.066" y="678.287" fill="#000" font-family="sans-serif" font-size="8.54" lengthAdjust="spacing" textLength="179.34">+ICollection&lt;Tournament&gt; Tournaments «get»</text><line style="stroke:#181818;stroke-width:.305" x1="436.016" x2="621.456" y1="682.87" y2="682.87"/></g><g id="elem_Game"><rect id="Game" width="260.47" height="275.491" x="210.011" y="1110.818" fill="#F1F1F1" codeLine="118" rx="1.525" ry="1.525" style="stroke:#181818;stroke-width:.305"/><ellipse cx="325.453" cy="1124.416" fill="#ADD1B2" rx="6.71" ry="6.71" style="stroke:#181818;stroke-width:.61"/><path fill="#000" d="M327.1403,1121.8996 Q327.2356,1121.7662 327.35,1121.6995 Q327.4644,1121.6327 327.5978,1121.6327 Q327.8266,1121.6327 327.9695,1121.7948 Q328.1125,1121.9473 328.1125,1122.319 L328.1125,1123.2054 Q328.1125,1123.5771 327.9695,1123.7391 Q327.8266,1123.9012 327.5978,1123.9012 Q327.3881,1123.9012 327.2642,1123.7773 Q327.1403,1123.6629 327.0736,1123.3484 Q327.045,1123.1291 326.9306,1123.0148 Q326.7305,1122.786 326.3588,1122.6526 Q325.987,1122.5191 325.6058,1122.5191 Q325.1388,1122.5191 324.748,1122.7193 Q324.3667,1122.9195 324.0617,1123.377 Q323.7663,1123.8345 323.7663,1124.4635 L323.7663,1125.1307 Q323.7663,1125.8837 324.3096,1126.3888 Q324.8528,1126.8845 325.825,1126.8845 Q326.3969,1126.8845 326.7972,1126.732 Q327.0355,1126.6366 327.2928,1126.3698 Q327.4549,1126.2077 327.5406,1126.1601 Q327.636,1126.1124 327.7599,1126.1124 Q327.96,1126.1124 328.1125,1126.2745 Q328.2746,1126.427 328.2746,1126.6366 Q328.2746,1126.8463 328.0649,1127.0941 Q327.7599,1127.4468 327.2738,1127.647 Q326.6161,1127.9234 325.825,1127.9234 Q324.9005,1127.9234 324.1666,1127.5421 Q323.5661,1127.2371 323.1467,1126.589 Q322.7274,1125.9313 322.7274,1125.1498 L322.7274,1124.4445 Q322.7274,1123.6343 323.0991,1122.9385 Q323.4803,1122.2332 324.1475,1121.8615 Q324.8147,1121.4802 325.5677,1121.4802 Q326.0156,1121.4802 326.4064,1121.5851 Q326.8067,1121.6804 327.1403,1121.8996 Z"/><text x="336.738" y="1121.767" fill="#000" font-family="sans-serif" font-size="7.32" font-style="italic" lengthAdjust="spacing" textLength="26.84">«Entity»</text><text x="338.568" y="1132.82" fill="#000" font-family="sans-serif" font-size="8.54" lengthAdjust="spacing" textLength="23.18">Game</text><line style="stroke:#181818;stroke-width:.305" x1="210.621" x2="469.871" y1="1138.013" y2="1138.013"/><text x="213.671" y="1149.669" fill="#000" font-family="sans-serif" font-size="8.54" lengthAdjust="spacing" textLength="83.57">+int WhiteId «get/set»</text><text x="213.671" y="1161.028" fill="#000" font-family="sans-serif" font-size="8.54" lengthAdjust="spacing" textLength="82.35">+int BlackId «get/set»</text><text x="213.671" y="1172.387" fill="#000" font-family="sans-serif" font-size="8.54" lengthAdjust="spacing" textLength="108.58">+int TournamentId «get/set»</text><text x="213.671" y="1183.745" fill="#000" font-family="sans-serif" font-size="8.54" lengthAdjust="spacing" textLength="99.43">+int OrganizerId «get/set»</text><text x="213.671" y="1195.104" fill="#000" font-family="sans-serif" font-size="8.54" lengthAdjust="spacing" textLength="103.09">+int TourNumber «get/set»</text><text x="213.671" y="1206.463" fill="#000" font-family="sans-serif" font-size="8.54" lengthAdjust="spacing" textLength="117.73">+double WhitePoints «get/set»</text><text x="213.671" y="1217.822" fill="#000" font-family="sans-serif" font-size="8.54" lengthAdjust="spacing" textLength="116.51">+double BlackPoints «get/set»</text><text x="213.671" y="1229.181" fill="#000" font-family="sans-serif" font-size="8.54" lengthAdjust="spacing" textLength="94.55">+bool IsPlayed «get/set»</text><text x="213.671" y="1240.54" fill="#000" font-family="sans-serif" font-size="8.54" lengthAdjust="spacing" textLength="116.51">+Player PlayerWhite «get/set»</text><text x="213.671" y="1251.899" fill="#000" font-family="sans-serif" font-size="8.54" lengthAdjust="spacing" textLength="115.29">+Player PlayerBlack «get/set»</text><text x="213.671" y="1263.258" fill="#000" font-family="sans-serif" font-size="8.54" lengthAdjust="spacing" textLength="91.5">+string Result «get/set»</text><text x="213.671" y="1274.616" fill="#000" font-family="sans-serif" font-size="8.54" lengthAdjust="spacing" textLength="225.09">-decimal RatioSum1, decimal RatioSum2 _prevBlackRatios</text><text x="213.671" y="1285.975" fill="#000" font-family="sans-serif" font-size="8.54" lengthAdjust="spacing" textLength="251.93">-int WinsCount, int DrawsCount, int LossesCount _prevBlackStats</text><text x="213.671" y="1297.334" fill="#000" font-family="sans-serif" font-size="8.54" lengthAdjust="spacing" textLength="125.66">-double, double _prevPointsSum</text><text x="213.671" y="1308.693" fill="#000" font-family="sans-serif" font-size="8.54" lengthAdjust="spacing" textLength="109.19">-double, double _prevResult</text><text x="213.671" y="1320.052" fill="#000" font-family="sans-serif" font-size="8.54" lengthAdjust="spacing" textLength="226.31">-decimal RatioSum1, decimal RatioSum2 _prevWhiteRatios</text><text x="213.671" y="1331.411" fill="#000" font-family="sans-serif" font-size="8.54" lengthAdjust="spacing" textLength="253.15">-int WinsCount, int DrawsCount, int LossesCount _prevWhiteStats</text><text x="213.671" y="1342.77" fill="#000" font-family="sans-serif" font-size="8.54" lengthAdjust="spacing" textLength="57.95">-string? _result</text><line style="stroke:#181818;stroke-width:.305" x1="210.621" x2="469.871" y1="1347.353" y2="1347.353"/><text x="213.671" y="1359.008" fill="#000" font-family="sans-serif" font-size="8.54" lengthAdjust="spacing" textLength="34.16">+Game()</text><text x="213.671" y="1370.367" fill="#000" font-family="sans-serif" font-size="8.54" lengthAdjust="spacing" textLength="114.68">-void UpdatePreviousValues()</text><text x="213.671" y="1381.726" fill="#000" font-family="sans-serif" font-size="8.54" lengthAdjust="spacing" textLength="97.6">-void RestoreOldValues()</text></g><g id="link_User_Tournament"><path id="User-backto-Tournament" fill="none" d="M340.2458,212.5262 C340.2458,221.8592 340.2458,231.5826 340.2458,241.4646" codeLine="181" style="stroke:#181818;stroke-width:.61"/><polygon fill="#181818" points="340.246 204.425 337.806 208.085 340.246 211.745 342.686 208.085 340.246 204.425" style="stroke:#181818;stroke-width:.61"/><text x="335.852" y="217.65" fill="#000" font-family="sans-serif" font-size="7.93" lengthAdjust="spacing" textLength="4.27">1</text><text x="327.865" y="234.902" fill="#000" font-family="sans-serif" font-size="7.93" lengthAdjust="spacing" textLength="12.2">0..*</text></g><g id="link_Tournament_Ratio"><path id="Tournament-backto-Ratio" fill="none" d="M257.542,508.5531 C228.6402,547.6053 198.2683,588.64 177.5222,616.6756" codeLine="182" style="stroke:#181818;stroke-width:.61"/><polygon fill="#181818" points="262.355 502.057 258.216 503.547 258 507.94 262.139 506.45 262.355 502.057" style="stroke:#181818;stroke-width:.61"/><text x="253.208" y="506.375" fill="#000" font-family="sans-serif" font-size="7.93" lengthAdjust="spacing" textLength="4.27">1</text><text x="167.719" y="609.908" fill="#000" font-family="sans-serif" font-size="7.93" lengthAdjust="spacing" textLength="12.2">0..*</text></g><g id="link_Tournament_System"><path id="Tournament-backto-System" fill="none" d="M422.7727,542.0482 C424.9321,545.0311 427.1098,547.9652 429.3058,550.8383 C447.2581,574.366 470.3405,598.0462 489.7446,616.5231" codeLine="183" style="stroke:#181818;stroke-width:.61"/><polygon fill="#181818" points="418.07 535.448 418.206 539.845 422.317 541.409 422.181 537.013 418.07 535.448" style="stroke:#181818;stroke-width:.61"/><text x="422.942" y="541.801" fill="#000" font-family="sans-serif" font-size="7.93" lengthAdjust="spacing" textLength="4.27">1</text><text x="472.049" y="609.737" fill="#000" font-family="sans-serif" font-size="7.93" lengthAdjust="spacing" textLength="12.2">0..*</text></g><g id="link_Tournament_Kind"><path id="Tournament-backto-Kind" fill="none" d="M426.1704,396.2033 C430.6051,396.2033 435.0459,396.2033 439.4867,396.2033" codeLine="184" style="stroke:#181818;stroke-width:.61"/><polygon fill="none" points="418.179 396.203 421.839 398.643 425.499 396.203 421.839 393.763 418.179 396.203" style="stroke:#181818;stroke-width:.61"/><text x="422.612" y="394.095" fill="#000" font-family="sans-serif" font-size="7.93" lengthAdjust="spacing" textLength="12.2">0..*</text><text x="430.584" y="394.137" fill="#000" font-family="sans-serif" font-size="7.93" lengthAdjust="spacing" textLength="4.27">1</text></g><g id="link_Group_Tournament"><path id="Group-to-Tournament" fill="none" d="M212.4691,396.2033 C226.4381,396.2033 240.4132,396.2033 254.3883,396.2033" codeLine="185" style="stroke:#181818;stroke-width:.61"/><polygon fill="#181818" points="262.379 396.203 258.719 393.763 255.059 396.203 258.719 398.643 262.379 396.203" style="stroke:#181818;stroke-width:.61"/><text x="217.321" y="394.081" fill="#000" font-family="sans-serif" font-size="7.93" lengthAdjust="spacing" textLength="12.2">1..*</text><text x="253.234" y="394.071" fill="#000" font-family="sans-serif" font-size="7.93" lengthAdjust="spacing" textLength="4.27">1</text></g><g id="link_Tournament_Team"><path id="Tournament-backto-Team" fill="none" d="M340.2458,559.1038 C340.2458,569.1078 340.2458,578.8007 340.2458,587.908" codeLine="186" style="stroke:#181818;stroke-width:.61"/><polygon fill="#181818" points="340.246 551.015 337.806 554.675 340.246 558.335 342.686 554.675 340.246 551.015" style="stroke:#181818;stroke-width:.61"/><text x="335.906" y="564.82" fill="#000" font-family="sans-serif" font-size="7.93" lengthAdjust="spacing" textLength="4.27">1</text><text x="327.617" y="581.233" fill="#000" font-family="sans-serif" font-size="7.93" lengthAdjust="spacing" textLength="12.2">0..*</text></g><g id="link_Tournament_Player"><path id="Tournament-backto-Player" fill="none" d="M424.3343,547.1539 C425.963,548.4227 427.6222,549.6488 429.3058,550.8383 C504.5615,603.8412 574.0954,517.3554 633.0458,588.0483 C669.5055,631.7731 660.1481,666.0795 633.0458,716.1483 C590.9558,793.905 502.0056,845.0779 433.1305,874.7544" codeLine="187" style="stroke:#181818;stroke-width:.61"/><polygon fill="#181818" points="418.179 542.067 419.447 546.279 423.822 546.729 422.555 542.517 418.179 542.067" style="stroke:#181818;stroke-width:.61"/><text x="422.808" y="548.383" fill="#000" font-family="sans-serif" font-size="7.93" lengthAdjust="spacing" textLength="4.27">1</text><text x="437.925" y="871.078" fill="#000" font-family="sans-serif" font-size="7.93" lengthAdjust="spacing" textLength="12.2">0..*</text></g><g id="link_Team_Player"><path id="Team-backto-Player" fill="none" d="M340.2458,724.1515 C340.2458,733.4052 340.2458,743.153 340.2458,753.1326" codeLine="189" style="stroke:#181818;stroke-width:.61"/><polygon fill="none" points="340.246 716.154 337.806 719.814 340.246 723.474 342.686 719.814 340.246 716.154" style="stroke:#181818;stroke-width:.61"/><text x="335.832" y="729.379" fill="#000" font-family="sans-serif" font-size="7.93" lengthAdjust="spacing" textLength="4.27">1</text><text x="327.865" y="746.567" fill="#000" font-family="sans-serif" font-size="7.93" lengthAdjust="spacing" textLength="12.2">0..*</text></g><g id="link_Player_Game"><path id="Player-backto-Game" fill="none" d="M317.4989,1070.7779 C317.5355,1078.1162 317.7856,1085.3935 318.2858,1092.5183 C318.7067,1098.5024 319.2191,1104.6085 319.7986,1110.7695" codeLine="190" style="stroke:#181818;stroke-width:.61"/><polygon fill="none" points="317.542 1062.787 315.082 1066.434 317.501 1070.107 319.962 1066.46 317.542 1062.787" style="stroke:#181818;stroke-width:.61"/><text x="312.457" y="1076.591" fill="#000" font-family="sans-serif" font-size="7.93" lengthAdjust="spacing" textLength="4.27">1</text><text x="306.645" y="1103.822" fill="#000" font-family="sans-serif" font-size="7.93" lengthAdjust="spacing" textLength="12.2">0..*</text></g><g id="link_Game_Player"><path id="Game-backto-Player" fill="none" d="M338.4829,1102.6565 C338.4585,1099.2405 338.4341,1095.8611 338.4158,1092.5183 C338.3609,1082.7766 338.3426,1072.7482 338.3548,1062.6405" codeLine="193" style="stroke:#181818;stroke-width:.61"/><polygon fill="none" points="338.544 1110.66 340.96 1106.984 338.496 1103.34 336.08 1107.016 338.544 1110.66" style="stroke:#181818;stroke-width:.61"/><text x="339.026" y="1090.096" fill="#000" font-family="sans-serif" font-size="7.93" lengthAdjust="spacing" textLength="20.74">White</text><text x="334.148" y="1104.155" fill="#000" font-family="sans-serif" font-size="7.93" lengthAdjust="spacing" textLength="4.27">1</text><text x="333.953" y="1076.44" fill="#000" font-family="sans-serif" font-size="7.93" lengthAdjust="spacing" textLength="4.27">1</text></g><g id="link_Game_Player"><path id="Game-backto-Player-1" fill="none" d="M362.0045,1102.7236 C362.3034,1099.2954 362.5718,1095.8855 362.8158,1092.5183 C363.5173,1082.8132 363.7369,1072.8336 363.5783,1062.7808" codeLine="194" style="stroke:#181818;stroke-width:.61"/><polygon fill="none" points="361.26 1110.776 364.024 1107.353 361.928 1103.486 359.164 1106.908 361.26 1110.776" style="stroke:#181818;stroke-width:.61"/><text x="363.426" y="1090.096" fill="#000" font-family="sans-serif" font-size="7.93" lengthAdjust="spacing" textLength="20.13">Black</text><text x="357.669" y="1103.828" fill="#000" font-family="sans-serif" font-size="7.93" lengthAdjust="spacing" textLength="4.27">1</text><text x="360.004" y="1076.585" fill="#000" font-family="sans-serif" font-size="7.93" lengthAdjust="spacing" textLength="4.27">1</text></g><g id="link_Group_Player"><path id="Group-backto-Player" fill="none" d="M93.1714,461.211 C51.8012,528.0243 3.66,634.0362 48.0558,716.1483 C90.0055,793.7464 178.6568,844.9132 247.3733,874.6263" codeLine="191" style="stroke:#181818;stroke-width:.61"/><polygon fill="none" points="97.405 454.471 93.392 456.273 93.513 460.67 97.525 458.868 97.405 454.471" style="stroke:#181818;stroke-width:.61"/><text x="89.791" y="467.894" fill="#000" font-family="sans-serif" font-size="7.93" lengthAdjust="spacing" textLength="4.27">1</text><text x="230.379" y="870.943" fill="#000" font-family="sans-serif" font-size="7.93" lengthAdjust="spacing" textLength="12.2">0..*</text></g></g></svg>